<svg xmlns="http://www.w3.org/2000/svg" viewBox="0 0 500 500"><g id="freepik--background-simple--inject-5"><g id="freepik--group--inject-5"><path id="freepik--path--inject-5" d="M128,164c-9.36,83.55,7.26,169.54,104.76,181.61,50.26,6.22,153.78-16.12,156.53-80.5,3.79-88.72-95.26-56.24-136.82-86-28.49-20.4-6.47-75.42-59-84.63C151.87,87.16,131.87,129.23,128,164Z" style="fill:#407BFF"></path><path id="freepik--path--inject-5" d="M128,164c-9.36,83.55,7.26,169.54,104.76,181.61,50.26,6.22,153.78-16.12,156.53-80.5,3.79-88.72-95.26-56.24-136.82-86-28.49-20.4-6.47-75.42-59-84.63C151.87,87.16,131.87,129.23,128,164Z" style="fill:#fff;opacity:0.9"></path></g></g><g id="freepik--Shadow--inject-5"><ellipse id="freepik--path--inject-5" cx="250" cy="416.24" rx="193.89" ry="11.32" style="fill:#f5f5f5"></ellipse></g><g id="freepik--speech-bubble--inject-5"><g id="freepik--group--inject-5"><ellipse cx="342.63" cy="416.24" rx="18.07" ry="1.11" style="fill:#e6e6e6"></ellipse><g id="freepik--group--inject-5"><rect x="192.04" y="245.03" width="213.65" height="144.96" rx="27.84" transform="translate(597.73 635.02) rotate(180)" style="fill:#263238"></rect><polygon id="freepik--path--inject-5" points="350.3 416.24 335.35 416.24 304.97 344.26 327.85 344.26 350.3 416.24" style="fill:#263238"></polygon></g><g id="freepik--group--inject-5"><g id="freepik--group--inject-5"><rect x="409.19" y="310.17" width="1" height="7.34" style="fill:#407BFF"></rect><rect x="409.19" y="310.17" width="1" height="7.34" style="opacity:0.2"></rect></g><g id="freepik--group--inject-5"><rect x="409.19" y="278.88" width="1" height="26.28" style="fill:#407BFF"></rect><rect x="409.19" y="278.88" width="1" height="26.28" style="opacity:0.2"></rect></g><g id="freepik--group--inject-5"><rect x="269.58" y="240.53" width="13.56" height="1" style="fill:#407BFF"></rect><rect x="269.58" y="240.53" width="13.56" height="1" style="opacity:0.2"></rect></g><g id="freepik--group--inject-5"><polygon points="391.44 344.26 350.27 416.24 319.89 344.26 391.44 344.26" style="fill:#407BFF"></polygon><polygon points="391.45 344.26 350.28 416.24 319.9 344.26 391.45 344.26" style="opacity:0.2"></polygon></g><g id="freepik--group--inject-5"><rect id="freepik--rectangle--inject-5" x="204.62" y="245.03" width="201.08" height="144.96" rx="27.84" transform="translate(610.31 635.02) rotate(180)" style="fill:#407BFF"></rect><rect id="freepik--rectangle--inject-5" x="204.62" y="245.03" width="201.08" height="144.96" rx="27.84" transform="translate(610.31 635.02) rotate(180)" style="opacity:0.2"></rect></g><g id="freepik--group--inject-5"><polygon points="282.75 389.99 256.15 389.99 284.29 245.03 310.9 245.03 282.75 389.99" style="fill:#407BFF;opacity:0.7000000000000001"></polygon><polygon points="306.78 389.99 291.65 389.99 319.8 245.03 334.92 245.03 306.78 389.99" style="fill:#407BFF;opacity:0.7000000000000001"></polygon></g></g><g id="freepik--group--inject-5"><path id="freepik--path--inject-5" d="M369.62,291.8H295.7a7.72,7.72,0,0,1,0-15.43h73.92a7.72,7.72,0,1,1,0,15.43Z" style="fill:#fff"></path><path id="freepik--path--inject-5" d="M270.37,291.8H236.89a7.72,7.72,0,0,1,0-15.43h33.48a7.72,7.72,0,1,1,0,15.43Z" style="fill:#fff"></path><path id="freepik--path--inject-5" d="M369.62,324.32H244.74a7.72,7.72,0,0,1,0-15.43H369.62a7.72,7.72,0,1,1,0,15.43Z" style="fill:#fff"></path><path id="freepik--path--inject-5" d="M369.62,356.83H311.77a7.72,7.72,0,0,1,0-15.43h57.85a7.72,7.72,0,1,1,0,15.43Z" style="fill:#fff"></path></g><path id="freepik--path--inject-5" d="M240.72,245s-11.06,59.8-11.06,85.06c0,25.91,9.14,59.9,9.14,59.9H209.59l-1.93-32.81a292,292,0,0,1,9-91.2l5.48-21Z" style="opacity:0.1"></path></g></g><g id="freepik--quotation-marks--inject-5"><g id="freepik--group--inject-5"><path d="M297.8,181.27a16.73,16.73,0,0,0-2.36,33.3,17.12,17.12,0,0,1-4.16,11.53s23.26-5.79,23.26-28.09A16.74,16.74,0,0,0,297.8,181.27Z" style="fill:#407BFF"></path><path d="M335.47,181.27a16.73,16.73,0,0,0-2.36,33.3A17.12,17.12,0,0,1,329,226.1s23.26-5.79,23.26-28.09A16.73,16.73,0,0,0,335.47,181.27Z" style="fill:#407BFF"></path></g></g></svg>